<svg width="477" height="428" viewBox="0 0 477 428" fill="none" xmlns="http://www.w3.org/2000/svg">
<path d="M475.292 427.786C475.292 412.679 475.292 397.572 475.292 382.465C475.292 372.692 476.73 361.647 475.238 351.947C471.963 330.658 471.416 309.678 471.416 287.949C471.416 260.889 475.256 232.984 471.847 206.35C469.541 188.336 471.416 169.237 471.416 151.018C471.416 135.639 472.385 120.283 472.385 104.997C472.385 89.4344 474.323 74.111 474.323 58.5465C474.323 46.8813 472.456 33.3006 475.076 21.8379C475.865 18.3858 475.292 14.2344 475.292 10.6961C475.292 7.96494 475.443 5.18792 475.292 2.46087C475.181 0.465661 466.427 1.49202 465.065 1.49202C438.617 1.49202 412.356 3.42972 385.942 3.42972C352.536 3.42972 318.848 1.62382 285.559 3.3759C255.342 4.96623 224.582 4.39857 194.11 4.39857C177.383 4.39857 159.46 2.78044 142.761 4.99065C130.401 6.62649 118.16 10.0675 105.622 10.2117C102.093 10.2522 97.7882 10.869 94.3722 9.67342C74.7127 2.79262 55.7328 5.36742 35.4338 5.36742C26.5527 5.36742 17.6715 5.36742 8.79042 5.36742C1.5239 5.36742 5.39944 11.2561 5.39944 16.9936C5.39944 28.7111 3.46174 40.0073 3.46174 51.8722C3.46174 90.2676 2.49289 128.596 2.49289 166.95C2.49289 174.033 2.91732 179.874 2.06229 187.081C0.986827 196.145 0.519372 206.597 2.27759 215.608C2.974 219.177 2.24323 223.127 2.00847 226.696C1.40709 235.837 1.52404 244.991 1.52404 254.147C1.52404 261.771 1.11213 269.587 1.73934 277.184C2.25654 283.447 4.10329 289.804 4.43059 296.022C4.79525 302.951 3.69517 309.884 3.51557 316.799C3.0816 333.507 1.7145 350.858 2.54672 367.502C3.19627 380.493 2.50514 394.165 4.64589 407.01C5.80716 413.977 4.43059 420.739 4.43059 427.786" stroke="#404040" stroke-width="2" stroke-linecap="round" stroke-linejoin="round"/>
</svg>
